Coordinates
version=1
nRows=22
nColumns=24
inDegrees=yes

Units are S.I. units (second, meters, Newtons, ...)
Angles are in degrees.

endheader
time	pelvis_tilt	pelvis_list	pelvis_rotation	pelvis_tx	pelvis_ty	pelvis_tz	hip_flexion_r	hip_adduction_r	hip_rotation_r	knee_angle_r	ankle_angle_r	subtalar_angle_r	mtp_angle_r	hip_flexion_l	hip_adduction_l	hip_rotation_l	knee_angle_l	ankle_angle_l	subtalar_angle_l	mtp_angle_l	lumbar_extension	lumbar_bending	lumbar_rotation
      3.96000000	     -8.51218298	     -9.35105242	      3.64099497	     -0.90979967	     -0.01795271	      0.63904656	     14.49511172	     13.00038398	     -7.61509965	    -11.75509574	     -0.11448757	     -6.19957961	      3.83925747	     27.64264168	    -17.06299783	    -11.48989882	    -69.04576709	     -6.55128753	      8.18544608	      4.94017110	      7.75026134	      9.66019576	     -4.22209580
      3.96500000	     -8.50929733	     -9.07265864	      3.19534849	     -0.90377929	     -0.01711795	      0.63964634	     13.69186648	     12.89572779	     -7.08070143	    -11.19605710	      0.02812615	     -5.94420311	      3.92364873	     28.32519382	    -16.90433019	    -11.93029100	    -68.74758911	     -6.32124080	      8.53062071	      5.07750785	      7.63254837	      9.45440880	     -3.59531279
      3.97000000	     -8.49764718	     -8.79518339	      2.73590737	     -0.89778716	     -0.01634649	      0.64024985	     12.89074319	     12.78156310	     -6.52419812	    -10.65321249	      0.16718536	     -5.69959245	      3.98214424	     28.98049241	    -16.75223467	    -12.39019859	    -68.38422461	     -6.09641212	      8.87203273	      5.18870182	      7.50054098	      9.25318660	     -2.94956592
      3.97500000	     -8.46706499	     -8.52441290	      2.26434462	     -0.89183052	     -0.01563888	      0.64085322	     12.07598682	     12.66454301	     -5.91736116	    -10.11698577	      0.31344867	     -5.47982762	      4.01028395	     29.60148330	    -16.61591296	    -12.87377064	    -67.96214236	     -5.88779122	      9.17210284	      5.25256433	      7.34464873	      9.06170999	     -2.29962841
      3.98000000	     -8.45584948	     -8.26340172	      1.79943334	     -0.88587881	     -0.01502721	      0.64144913	     11.29975170	     12.53876166	     -5.36613601	     -9.60254966	      0.45828741	     -5.23396219	      4.02360652	     30.23184601	    -16.48203023	    -13.33672125	    -67.47743370	     -5.64930801	      9.53287647	      5.28585621	      7.21641313	      8.87631431	     -1.66297981
      3.98500000	     -8.45853234	     -8.00229064	      1.33644164	     -0.87992424	     -0.01450195	      0.64205149	     10.55443922	     12.39772843	     -4.86414073	     -9.10897964	      0.60681356	     -4.96985136	      4.03709445	     30.85707115	    -16.34638303	    -13.79767277	    -66.92486618	     -5.38755354	      9.92293585	      5.29159905	      7.10940774	      8.68571848	     -1.03498101
      3.99000000	     -8.42740758	     -7.75089240	      0.85651787	     -0.87402851	     -0.01402860	      0.64264339	      9.77843472	     12.25543680	     -4.28370634	     -8.61987908	      0.77713591	     -4.70553310	      4.03874640	     31.43317960	    -16.23575581	    -14.29740448	    -66.32411929	     -5.15942265	     10.21088988	      5.19084000	      6.95496202	      8.51141208	     -0.39454217
      3.99500000	     -8.43888389	     -7.50939731	      0.40809303	     -0.86808951	     -0.01367630	      0.64320791	      9.06699555	     12.10352102	     -3.82270300	     -8.15113218	      0.93906693	     -4.43026534	      4.05947901	     32.04286697	    -16.11348945	    -14.74852597	    -65.65490546	     -4.89347466	     10.58027205	      5.11267007	      6.86585541	      8.33698004	      0.20345848
      4.00000000	     -8.42703770	     -7.27139126	     -0.06055331	     -0.86220079	     -0.01337563	      0.64377935	      8.34104334	     11.94428004	     -3.31597511	     -7.69494155	      1.11769696	     -4.13651653	      4.09285572	     32.60671843	    -16.01078692	    -15.23957401	    -64.93169087	     -4.65322394	     10.86038589	      4.94215095	      6.74210100	      8.16962186	      0.82663594
      4.00500000	     -8.39751702	     -7.05152474	     -0.51544385	     -0.85635023	     -0.01314204	      0.64431738	      7.60941805	     11.78834300	     -2.81186668	     -7.24943125	      1.30126138	     -3.84831870	      4.13659408	     33.14648725	    -15.92019953	    -15.72105732	    -64.16269892	     -4.42247720	     11.10165185	      4.66526795	      6.59675696	      8.02235703	      1.43628718
      4.01000000	     -8.40748273	     -6.83348839	     -0.94380133	     -0.85043488	     -0.01302667	      0.64483849	      6.93570794	     11.62098126	     -2.39601073	     -6.82488526	      1.48820615	     -3.57365287	      4.19888935	     33.70261307	    -15.81413888	    -16.17638384	    -63.31857097	     -4.14887143	     11.38234355	      4.42123170	      6.51563264	      7.86470176	      1.99093437
      4.01500000	     -8.39612277	     -6.62902568	     -1.37390395	     -0.84456629	     -0.01296148	      0.64532842	      6.25545825	     11.45365248	     -1.95783896	     -6.42099045	      1.68790410	     -3.28264037	      4.28997606	     34.22181000	    -15.72102603	    -16.63969672	    -62.42443180	     -3.90695260	     11.60312273	      4.08742041	      6.40684756	      7.72737491	      2.55329561
      4.02000000	     -8.36802606	     -6.44543625	     -1.78079811	     -0.83873611	     -0.01297818	      0.64577707	      5.57079761	     11.29311015	     -1.53118250	     -6.02698040	      1.89621850	     -3.00064389	      4.41178255	     34.71907915	    -15.63993369	    -17.09316384	    -61.49322784	     -3.66120595	     11.80210414	      3.64245226	      6.27153398	      7.60529794	      3.09758011
      4.02500000	     -8.38881127	     -6.25743096	     -2.15546283	     -0.83282049	     -0.01310528	      0.64619944	      4.95929197	     11.12016128	     -1.18665580	     -5.66891303	      2.10973827	     -2.75826046	      4.52844378	     35.23406674	    -15.52668007	    -17.51327258	    -60.47161745	     -3.39570141	     12.03989686	      3.30053964	      6.21705988	      7.46921987	      3.57861465
      4.03000000	     -8.40976312	     -6.09222911	     -2.48566570	     -0.82695844	     -0.01335193	      0.64653918	      4.35935835	     10.95447834	     -0.81930223	     -5.31828123	      2.37538298	     -2.51710786	      4.65199303	     35.75969985	    -15.41227033	    -17.89499010	    -59.41683998	     -3.18199042	     12.27794728	      2.99168168	      6.15477979	      7.35700033	      3.99937486
      4.03500000	     -8.38146282	     -5.92933881	     -2.87045038	     -0.82109350	     -0.01353498	      0.64690645	      3.73454151	     10.78749479	     -0.48001003	     -5.02018515	      2.56959824	     -2.27822517	      4.80241180	     36.16175797	    -15.32022933	    -18.35057170	    -58.27233141	     -2.92998046	     12.45907819	      2.52535936	      6.03799746	      7.25147378	      4.51894027
      4.04000000	     -8.35519829	     -5.79965944	     -3.17882275	     -0.81524552	     -0.01385917	      0.64715552	      3.11486924	     10.63732704	     -0.13070721	     -4.71648541	      2.82367049	     -2.06926569	      4.97038987	     36.58779873	    -15.21316118	    -18.72335301	    -57.11006002	     -2.69434931	     12.70458887	      2.00945563	      5.92331376	      7.17611431	      4.94539558
      4.04500000	     -8.37199415	     -5.66119479	     -3.46809268	     -0.80936098	     -0.01426159	      0.64735793	      2.56979455	     10.47385317	      0.16088089	     -4.46077378	      3.06345133	     -1.89753766	      5.09828334	     37.01711742	    -15.07331208	    -19.08728952	    -55.85264663	     -2.46205146	     13.00178000	      1.62249439	      5.86685267	      7.08787270	      5.32551157
      4.05000000	     -8.37100325	     -5.54049462	     -3.73507454	     -0.80346538	     -0.01473042	      0.64753812	      2.01489690	     10.32222109	      0.45672440	     -4.22343340	      3.33468425	     -1.73576651	      5.21691141	     37.40914460	    -14.93444038	    -19.43462305	    -54.54842734	     -2.25393909	     13.33594866	      1.25143489	      5.79422636	      7.01242477	      5.69202447
      4.05500000	     -8.36359528	     -5.43200679	     -3.97702865	     -0.79758058	     -0.01526897	      0.64763795	      1.47165246	     10.17288857	      0.75209758	     -4.01738767	      3.63198517	     -1.59231738	      5.32673422	     37.77255799	    -14.77779936	    -19.75438977	    -53.18941870	     -2.04172872	     13.73371367	      0.88937986	      5.71147030	      6.95079396	      6.02421625
      4.06000000	     -8.37872203	     -5.33083531	     -4.18509406	     -0.79162315	     -0.01589012	      0.64770569	      0.95777644	     10.03008718	      0.99521428	     -3.82219466	      3.92209493	     -1.47284280	      5.40672435	     38.13384568	    -14.60689482	    -20.06584640	    -51.77294283	     -1.86036047	     14.20047321	      0.60727652	      5.67092233	      6.89001914	      6.33043528
      4.06500000	     -8.38050148	     -5.23260852	     -4.38541152	     -0.78570887	     -0.01654830	      0.64769838	      0.45390676	      9.87954269	      1.25358223	     -3.66760055	      4.23228595	     -1.35380608	      5.48240114	     38.45218429	    -14.41389332	    -20.35479516	    -50.29792134	     -1.69177366	     14.75378932	      0.34312055	      5.60071883	      6.83756102	      6.61900298
